<svg width="16" height="16" viewBox="0 0 16 16" fill="none" xmlns="http://www.w3.org/2000/svg">
<rect width="16" height="16" rx="3" fill="#0072FF"/>
<path fill-rule="evenodd" clip-rule="evenodd" d="M12.4487 7.88921C12.7501 8.00054 12.9318 8.26042 12.9318 8.62003V8.62022C12.9318 9.1703 12.4343 9.4953 11.8337 9.49642C11.4438 9.49642 11.0967 9.35479 10.8048 9.08087L10.7953 9.07843L10.9987 8.85578L11.0106 8.86027C11.2428 9.10856 11.5538 9.19668 11.8339 9.19668C12.2691 9.19668 12.6016 8.99405 12.6233 8.61667C12.6328 8.26173 12.3265 8.05293 11.939 8.05293H11.5012V7.75506H11.9151C12.2189 7.75506 12.5157 7.5964 12.5157 7.27383C12.5157 6.95127 12.2197 6.78194 11.8026 6.78194C11.475 6.78194 11.293 6.9146 11.1654 7.08636L10.927 6.93087C11.1553 6.61055 11.4892 6.50634 11.8026 6.50391C12.3768 6.50391 12.8171 6.78194 12.8171 7.30676C12.8171 7.53409 12.7043 7.75487 12.4487 7.88921ZM6.96217 7.80905C7.25517 7.88801 7.66399 8.02216 7.82939 8.27157L7.82957 8.27138C7.88271 8.34211 7.92013 8.42312 7.93921 8.50938C7.95961 8.59732 7.96373 8.68825 7.95156 8.77768C7.9394 8.87048 7.91078 8.96048 7.86718 9.04337C7.8219 9.13018 7.76053 9.20746 7.68663 9.27145C7.4172 9.49765 7.07817 9.49765 6.93335 9.49765H6.91202C6.74064 9.49354 6.57112 9.46117 6.41021 9.40186C6.27251 9.35321 6.14565 9.27856 6.03601 9.1822V9.46023H5.77107V8.50938H6.03694V8.51275L6.03956 8.77244C6.04162 8.77899 6.0448 8.78517 6.04911 8.79059C6.0546 8.79808 6.06054 8.80513 6.06666 8.81239L6.06666 8.8124L6.06894 8.8151L6.08091 8.82876C6.09644 8.84654 6.11253 8.86337 6.12844 8.87928L6.13368 8.88433C6.23565 8.98237 6.35408 9.06152 6.48375 9.1184C6.50956 9.13056 6.53651 9.14085 6.56326 9.15039H6.56532C6.57823 9.15507 6.5917 9.15975 6.60499 9.16386C6.72024 9.19623 6.83943 9.21251 6.95917 9.21213C6.96867 9.21213 6.97812 9.21184 6.98742 9.21156H6.98743L6.98745 9.21156C6.99646 9.21128 7.00534 9.21101 7.01399 9.21101C7.09969 9.20783 7.18444 9.19305 7.26602 9.16686C7.34947 9.14029 7.42637 9.09632 7.49167 9.03794C7.55173 8.97957 7.59757 8.90791 7.62526 8.82876C7.64883 8.76009 7.65444 8.68638 7.64153 8.61472C7.62806 8.54249 7.59644 8.47476 7.55004 8.4177C7.49952 8.3567 7.43572 8.30806 7.36331 8.27587C7.22523 8.21694 7.08247 8.16941 6.93672 8.13368L6.93092 8.13218L6.86936 8.11571L6.81099 8.09962L6.80406 8.09775L6.80276 8.0974C6.50894 8.01679 6.10705 7.90653 5.94264 7.65039C5.90485 7.59351 5.87548 7.53121 5.85564 7.46572C5.83955 7.40603 5.83188 7.34467 5.83319 7.28292C5.83375 7.17833 5.85733 7.07524 5.90223 6.98075C5.94845 6.88308 6.01692 6.79739 6.10224 6.73078C6.18045 6.66548 6.26989 6.61553 6.36643 6.58316C6.48244 6.54518 6.6222 6.52534 6.79377 6.52534C6.94252 6.5274 7.08996 6.55304 7.23066 6.60112C7.36182 6.64733 7.48512 6.71376 7.59588 6.79795C7.59888 6.80113 7.60112 6.80113 7.60318 6.80113C7.60561 6.79945 7.60711 6.79664 7.60711 6.79365V6.58746H7.86868V7.49734H7.60655V7.49397L7.60131 7.19199C7.49578 7.08066 7.36967 6.99067 7.22991 6.92705C7.08958 6.86082 6.93709 6.82489 6.78199 6.82153H6.77544C6.56644 6.82153 6.37953 6.88907 6.26034 7.00657C6.22292 7.04306 6.19243 7.08609 6.17054 7.13361C6.15014 7.17871 6.13966 7.22773 6.13966 7.27731C6.14415 7.60623 6.53988 7.70428 6.85758 7.78267L6.88505 7.78951L6.88505 7.78951L6.88506 7.78951L6.88507 7.78951L6.88507 7.78952C6.91171 7.79613 6.9373 7.80249 6.96217 7.80905ZM9.55106 7.80887C9.84238 7.88745 10.2495 8.02085 10.4183 8.27157H10.4185C10.4712 8.34155 10.5085 8.42219 10.5277 8.50769C10.5481 8.59563 10.5522 8.68656 10.5401 8.776C10.5281 8.86936 10.4997 8.95992 10.4561 9.04337C10.4108 9.13018 10.3494 9.20746 10.2755 9.27145C10.0083 9.49765 9.66781 9.49765 9.52225 9.49765H9.50092C9.32953 9.49354 9.16002 9.46117 8.99911 9.40186C8.8614 9.35321 8.73455 9.27856 8.62491 9.1822V9.46023H8.36259V8.50938H8.62472V8.51275L8.62734 8.77244C8.6294 8.77918 8.63258 8.78535 8.63707 8.79078C8.76935 8.95749 8.97329 9.09389 9.19669 9.16461C9.32841 9.20147 9.46537 9.217 9.60214 9.21045C9.68765 9.20671 9.77222 9.19155 9.85361 9.16536C9.93724 9.13823 10.0145 9.09407 10.0802 9.03551C10.1401 8.97695 10.1855 8.9051 10.213 8.82595C10.2364 8.75729 10.2418 8.68357 10.2287 8.6121C10.2153 8.54044 10.1838 8.47327 10.1376 8.41695C10.0877 8.35595 10.0241 8.30787 9.95202 8.27606C9.81394 8.21712 9.67118 8.1696 9.52543 8.13386L9.45807 8.11571L9.39595 8.0985L9.38828 8.09644L9.38474 8.09546C9.10533 8.01828 8.72428 7.91302 8.55325 7.67677L8.55081 7.67359L8.54944 7.67188C8.54852 7.67078 8.54768 7.66977 8.5452 7.66611L8.54104 7.66019L8.54103 7.66017C8.53873 7.65697 8.53643 7.65375 8.53435 7.65039C8.49524 7.59351 8.46512 7.53102 8.44491 7.46516C8.42845 7.40547 8.42078 7.34392 8.42209 7.28217C8.42265 7.17796 8.44604 7.07505 8.49075 6.98075C8.53697 6.88308 8.60545 6.79739 8.69077 6.73078C8.76916 6.66548 8.85916 6.61534 8.95589 6.58316C9.07227 6.54518 9.21166 6.52534 9.3823 6.52534C9.53104 6.5274 9.67848 6.55304 9.81918 6.60112C9.95034 6.64733 10.0736 6.71376 10.1844 6.79795C10.1859 6.79964 10.1891 6.80113 10.1915 6.80113C10.1941 6.79964 10.1956 6.79664 10.1956 6.79365V6.58746H10.4572V7.49715H10.1951V7.49397L10.1924 7.19199C10.0858 7.08066 9.95913 6.99067 9.81881 6.92705C9.67829 6.86082 9.52562 6.82489 9.37051 6.82153H9.36396C9.15328 6.82153 8.96524 6.88851 8.84756 7.00769C8.80209 7.05204 8.76766 7.10648 8.74708 7.16654V7.16804C8.74652 7.16935 8.74615 7.17066 8.74577 7.17216C8.74241 7.18263 8.7396 7.19311 8.73735 7.20378V7.20789C8.73286 7.23109 8.73081 7.25448 8.73081 7.27806C8.73081 7.42306 8.80864 7.53588 8.96749 7.62289C9.10274 7.69626 9.27555 7.7399 9.42965 7.77881L9.44123 7.78174H9.44423C9.48183 7.7909 9.51701 7.79989 9.55106 7.80887ZM5.14074 9.23399L4.42414 8.15067C4.54557 8.15535 4.66644 8.13196 4.7772 8.08219C4.93381 8.00267 5.05973 7.90201 5.137 7.75308C5.19987 7.63015 5.23242 7.49394 5.23186 7.35586C5.23186 7.13863 5.14617 6.93039 4.99349 6.77584C4.82791 6.62579 4.62116 6.55263 4.36109 6.55263H2.97297V6.85237H3.26766V9.23773H2.94715V9.48845H3.87761V9.23773H3.57787V8.15516H4.07931L4.78132 9.23773H4.46231V9.48845H5.46368V9.23773H5.15047C5.14673 9.23792 5.14317 9.23661 5.14055 9.23418L5.14074 9.23399ZM3.57787 6.83889H4.34593C4.58187 6.83889 4.76298 6.93263 4.85466 7.09373C4.94447 7.25819 4.94129 7.45783 4.84624 7.61949C4.75213 7.77834 4.6408 7.86609 4.3942 7.86609H3.57769V6.83889H3.57787ZM2.75421 7.86422H2V8.17219H2.75421V7.86422ZM13.246 7.86422H14.0002V8.17219H13.246V7.86422Z" fill="white"/>
</svg>
