<svg xmlns="http://www.w3.org/2000/svg" xmlns:v="https://vecta.io/nano" width="2101" height="1365" fill="none" opacity=".5"><g fill="#000"><path d="M1843.46 416.68c.2.195.51.195.71 0l3.18-3.182a.49.49 0 0 0 0-.707c-.19-.196-.51-.196-.71 0l-2.83 2.828-2.82-2.828c-.2-.196-.52-.196-.71 0a.49.49 0 0 0 0 .707zm-181.83-169.698h1.01v-1h-1.01zm3.03 0h2.02v-1h-2.02zm4.04 0h2.02v-1h-2.02zm4.03 0h2.02v-1h-2.02zm4.04 0h2.02v-1h-2.02zm4.04 0h2.02v-1h-2.02zm4.04 0h2.01v-1h-2.01zm4.03 0h2.02v-1h-2.02zm4.04 0h2.02v-1h-2.02zm4.04 0h2.01v-1h-2.01zm4.03 0h2.02v-1h-2.02zm4.04 0h2.02v-1h-2.02zm4.04 0h2.02v-1h-2.02zm4.03 0h2.02v-1h-2.02zm4.04 0h2.02v-1h-2.02zm4.04 0h2.02v-1h-2.02zm4.03 0h2.02v-1h-2.02zm4.04 0h2.02v-1h-2.02zm4.04 0h2.02v-1h-2.02zm4.04 0h2.01v-1h-2.01zm4.03 0h2.02v-1h-2.02zm4.04 0h2.02v-1h-2.02zm4.04 0h2.01v-1h-2.01zm4.03 0h2.02v-1h-2.02zm4.04 0h2.02v-1h-2.02zm4.04 0h2.02v-1h-2.02zm4.03 0h2.02v-1h-2.02zm4.04 0h2.02v-1h-2.02zm4.04 0h2.02v-1h-2.02zm4.03 0h2.02v-1h-2.02zm4.04 0h2.02v-1h-2.02zm4.04 0h2.02v-1h-2.02zm4.04 0h1v-1h-1zm1 0l.99.009.02-1-1.01-.009zm2.95.081l1.96.145.09-.996-1.99-.147zm3.91.363l1.94.29.17-.986-1.98-.296zm3.87.653l1.92.435.24-.971-1.95-.443zm3.81.942l1.88.578.31-.95-1.91-.589zm3.73 1.227l1.83.717.38-.923-1.86-.732zm3.63 1.504l1.77.853.45-.892-1.8-.87zm3.5 1.772l1.7.983.52-.856-1.73-1.002zm3.37 2.029l1.62 1.108.58-.815-1.66-1.129zm3.2 2.275l1.53 1.225.64-.769-1.56-1.249zm3.02 2.507l1.44 1.336.69-.72-1.47-1.361zm2.83 2.725l1.33 1.439.75-.667-1.36-1.466zm2.61 2.927l1.23 1.534.79-.609-1.25-1.564zm2.4 3.113l1.1 1.621.84-.548-1.13-1.652zm2.15 3.283l.98 1.7.88-.485-1-1.731zm1.9 3.435l.86 1.768.9-.418-.87-1.802zm1.64 3.568l.72 1.827.94-.348-.73-1.862zm1.37 3.68l.58 1.876.96-.277-.59-1.912zm1.08 3.773l.44 1.916.98-.203-.45-1.953zm.8 3.844l.29 1.941.99-.129-.29-1.978zm.51 3.894l.14 1.959 1-.055-.15-1.996zm.22 3.919v.986h1v-1.004zm0 .986v1.007h1v-1.007zm0 3.022v2.014h1v-2.014zm0 4.029v2.014h1v-2.014zm0 4.029v2.015h1v-2.015zm0 4.029v2.015h1v-2.015zm0 4.029v2.015h1v-2.015zm0 4.029v2.015h1v-2.015zm0 4.029v2.015h1v-2.015zm0 4.03v2.014h1v-2.014zm0 4.029v2.014h1v-2.014zm0 4.029v2.014h1v-2.014zm0 4.029v2.014h1v-2.014zm0 4.029v2.015h1v-2.015zm0 4.029v2.015h1v-2.015zm0 4.029v2.015h1v-2.015zm0 4.029v2.015h1v-2.015zm0 4.029v2.015h1v-2.015zm0 4.03v2.014h1v-2.014zm0 4.029v2.014h1v-2.014zm0 4.029v2.014h1v-2.014zm0 4.029v2.014h1v-2.014zm0 4.029v2.015h1v-2.015zm0 4.029v2.015h1v-2.015zm0 4.029v2.015h1v-2.015zm0 4.029v2.015h1v-2.015zm0 4.03v2.014h1v-2.014zm0 4.029v2.014h1v-2.014zm0 4.029v2.014h1v-2.014zm0 4.029v2.014h1v-2.014zm0 4.029v1.007h1v-1.007z"/><path d="M1264.54 711.042l-2.88-5h5.77zm53-144.294v-.5zm-53 53.003h.5zm488.17-52.504h-1v-1h1zm-2.99 0h-2v-1h2zm-4 0h-1.99v-1h1.99zm-3.99 0h-1.99v-1h1.99zm-3.99 0h-2v-1h2zm-3.99 0h-2v-1h2zm-4 0h-1.99v-1h1.99zm-3.99 0h-1.99v-1h1.99zm-3.99 0h-2v-1h2zm-3.99 0h-2v-1h2zm-4 0h-1.99v-1h1.99zm-3.99 0h-1.99v-1h1.99zm-3.99 0h-2v-1h2zm-3.99 0h-2v-1h2zm-3.99 0h-2v-1h2zm-4 0h-1.99v-1h1.99zm-3.99 0h-2v-1h2zm-3.99 0h-2v-1h2zm-3.99 0h-2v-1h2zm-4 0h-1.99v-1h1.99zm-3.99 0h-2v-1h2zm-3.99 0h-2v-1h2zm-3.99 0h-2v-1h2zm-4 0h-1.99v-1h1.99zm-3.99 0h-2v-1h2zm-3.99 0h-2v-1h2zm-3.99 0h-2v-1h2zm-4 0h-1.99v-1h1.99zm-3.99 0h-1.99v-1h1.99zm-3.99 0h-2v-1h2zm-3.99 0h-2v-1h2zm-4 0h-1.99v-1h1.99zm-3.99 0h-1.99v-1h1.99zm-3.99 0h-2v-1h2zm-3.99 0h-2v-1h2zm-4 0h-1.99v-1h1.99zm-3.99 0h-1.99v-1h1.99zm-3.99 0h-2v-1h2zm-3.99 0h-2v-1h2zm-4 0h-1.99v-1h1.99zm-3.99 0h-1.99v-1h1.99zm-3.99 0h-2v-1h2zm-3.99 0h-2v-1h2zm-3.99 0h-2v-1h2zm-4 0h-1.99v-1h1.99zm-3.99 0h-2v-1h2zm-3.99 0h-2v-1h2zm-3.99 0h-2v-1h2zm-4 0h-1.99v-1h1.99zm-3.99 0h-2v-1h2zm-3.99 0h-2v-1h2zm-3.99 0h-2v-1h2zm-4 0h-1.99v-1h1.99zm-3.99 0h-1.99v-1h1.99zm-3.99 0h-2v-1h2zm-3.99 0h-2v-1h2zm-4 0h-1.99v-1h1.99zm-3.99 0h-1.99v-1h1.99zm-3.99 0h-2v-1h2zm-3.99 0h-2v-1h2zm-4 0h-1.99v-1h1.99zm-3.99 0h-1.99v-1h1.99zm-3.99 0h-2v-1h2zm-3.99 0h-2v-1h2zm-4 0h-1.99v-1h1.99zm-3.99 0h-1.99v-1h1.99zm-3.99 0h-2v-1h2zm-3.99 0h-2v-1h2zm-3.99 0h-2v-1h2zm-4 .001h-1.99v-1h1.99zm-3.99 0h-2v-1h2zm-3.99 0h-2v-1h2zm-3.99 0h-2v-1h2zm-4 0h-1.99v-1h1.99zm-3.99 0h-2v-1h2zm-3.99 0h-2v-1h2zm-3.99 0h-2v-1h2zm-4 0h-1.99v-1h1.99zm-3.99 0h-2v-1h2zm-3.99 0h-2v-1h2zm-3.99 0h-2v-1h2zm-4 0h-1.99v-1h1.99zm-3.99 0h-2v-1h2zm-3.99 0h-2v-1h2zm-3.99 0h-2v-1h2zm-4 0h-1.99v-1h1.99zm-3.99 0h-1.99v-1h1.99zm-3.99 0h-2v-1h2zm-3.99 0h-2v-1h2zm-4 0h-1.99v-1h1.99zm-3.99 0h-1.99v-1h1.99zm-3.99 0h-2v-1h2zm-3.99 0h-2v-1h2zm-4 0h-1.99v-1h1.99zm-3.99 0h-1.99v-1h1.99zm-3.99 0h-2v-1h2zm-3.99 0h-2v-1h2zm-4 0h-1.99v-1h1.99zm-3.99 0h-1.99v-1h1.99zm-3.99 0h-2v-1h2zm-3.99 0h-2v-1h2zm-4 0h-1.99v-1h1.99zm-3.99 0h-1.99v-1h1.99zm-3.99 0h-2v-1h2zm-3.99 0h-2v-1h2zm-3.99 0h-2v-1h2zm-4 0h-1.99v-1h1.99zm-3.99 0h-2v-1h2zm-3.99 0h-2v-1h2zm-3.99 0h-1v-1h1zm-1 0l-.99.009-.02-1 1.01-.009zm-2.95.081l-1.96.145-.09-.996 2-.148zm-3.91.362l-1.94.291-.17-.986 1.98-.296zm-3.87.653l-1.92.436-.24-.971 1.96-.444zm-3.81.943l-1.88.578-.31-.95 1.91-.589zm-3.73 1.226l-1.83.718-.38-.923 1.86-.732zm-3.63 1.505l-1.77.853-.45-.892 1.8-.87zm-3.5 1.772l-1.7.983-.52-.856 1.73-1.002zm-3.36 2.03l-1.63 1.107-.57-.815 1.65-1.128zm-3.2 2.275l-1.54 1.225-.64-.77 1.57-1.248zm-3.03 2.507l-1.44 1.336-.69-.72 1.47-1.362zm-2.82 2.724l-1.34 1.44-.75-.667 1.37-1.467zm-2.62 2.928l-1.23 1.534-.79-.609 1.25-1.564zm-2.39 3.113l-1.11 1.622-.84-.549 1.13-1.652zm-2.16 3.284l-.98 1.699-.88-.484 1.01-1.732zm-1.9 3.434l-.85 1.769-.91-.418.87-1.802zm-1.64 3.568l-.72 1.828-.93-.348.73-1.863zm-1.37 3.681l-.57 1.876-.96-.276.58-1.913zm-1.08 3.773l-.44 1.916-.98-.203.45-1.953zm-.8 3.844l-.29 1.942-.99-.13.3-1.978zm-.51 3.894l-.14 1.96-1-.055.15-1.997zm-.21 3.92l-.01.986h-1l.01-1.004zm-.01.986v.992h-1v-.992zm0 2.976v1.985h-1v-1.984zm0 3.97v1.984h-1v-1.984zm0 3.969v1.984h-1v-1.984zm0 3.969v1.985h-1v-1.985zm0 3.969v1.985h-1v-1.985zm0 3.969v1.985h-1v-1.985zm0 3.97v1.984h-1v-1.984zm0 3.969v1.984h-1v-1.984zm0 3.969v1.985h-1v-1.985zm0 3.969v1.985h-1v-1.985zm0 3.969v1.985h-1v-1.985zm0 3.97v1.984h-1v-1.984zm0 3.969v1.984h-1v-1.984zm0 3.969v1.984l-1 .001v-1.985zm0 3.969v1.985h-1v-1.985zm0 3.969v1.985h-1v-1.985zm0 3.969v1.985h-1v-1.985zm0 3.97v1.984h-1v-1.984zm0 3.969v1.984h-1v-1.984zm0 3.969v1.985h-1v-1.985zm0 3.969v1.985h-1v-1.985zm0 3.969v1.985h-1v-1.985z"/><path d="M1348.85 183.794l-5-2.887v5.773zm-96.82-.006v-.5zm-52.5 548.147v-.998h-1v.998zm0-2.995v-1.996h-1v1.996zm0-3.993v-1.996h-1v1.996zm0-3.993v-1.997h-1v1.997zm0-3.993v-1.997h-1v1.997zm0-3.993v-1.997h-1v1.997zm0-3.993v-1.997h-1v1.997zm0-3.994v-1.996h-1v1.996zm0-3.993v-1.996h-1v1.996zm0-3.993v-1.996h-1v1.996zm0-3.993v-1.996h-1v1.996zm0-3.993v-1.997h-1v1.997zm0-3.993v-1.997h-1v1.997zm0-3.993v-1.997h-1v1.997zm0-3.993v-1.997h-1v1.997zm0-3.994v-1.996h-1v1.996zm0-3.993v-1.996h-1v1.996zm0-3.993v-1.996h-1v1.996zm0-3.993v-1.996h-1v1.996zm0-3.993v-1.997h-1v1.997zm0-3.993v-1.997h-1v1.997zm0-3.993v-1.997h-1v1.997zm0-3.993v-1.997h-1v1.997zm0-3.993v-1.997h-1v1.997zm0-3.994v-1.996h-1v1.996zm0-3.993v-1.996h-1v1.996zm0-3.993v-1.996h-1v1.996zm0-3.993v-1.997h-1v1.997zm0-3.993v-1.997h-1v1.997zm0-3.993v-1.997h-1v1.997zm0-3.993v-1.997h-1v1.997zm0-3.993v-1.997h-1v1.997zm0-3.994v-1.996h-1v1.996zm0-3.993v-1.996h-1v1.996zm0-3.993v-1.996h-1v1.996zm0-3.993v-1.997h-1v1.997zm0-3.993v-1.997h-1v1.997zm0-3.993v-1.997h-1v1.997zm0-3.993v-1.997h-1v1.997zm0-3.994v-1.996h-1v1.996zm0-3.993v-1.996h-1v1.996zm0-3.993v-1.996h-1v1.996zm0-3.993v-1.996h-1v1.996zm0-3.993v-1.997h-1v1.997zm0-3.993v-1.997h-1v1.997zm0-3.993v-1.997h-1v1.997zm0-3.993v-1.997h-1v1.997zm0-3.994v-1.996h-1v1.996zm0-3.993v-1.996h-1v1.996zm0-3.993v-1.996h-1v1.996zm0-3.993v-1.997h-1v1.997zm0-3.993v-1.997h-1v1.997zm0-3.993v-1.997h-1v1.997zm0-3.993v-1.997h-1v1.997zm0-3.994v-1.996h-1v1.996zm0-3.993v-1.996h-1v1.996zm0-3.993v-1.996h-1v1.996zm0-3.993v-1.996h-1v1.996zm0-3.993v-1.997h-1v1.997zm0-3.993v-1.997h-1v1.997zm0-3.993v-1.997h-1v1.997zm0-3.993v-1.997h-1v1.997zm0-3.994v-1.996h-1v1.996zm0-3.993v-1.996h-1v1.996zm0-3.993v-1.996h-1v1.996zm0-3.993v-1.996h-1v1.996zm0-3.993v-1.997h-1v1.997zm0-3.993v-1.997h-1v1.997zm0-3.993v-1.997h-1v1.997zm0-3.993v-1.997h-1v1.997zm0-3.993v-1.997h-1v1.997zm0-3.994v-1.996h-1v1.996zm0-3.993v-1.996h-1v1.996zm0-3.993v-1.996h-1v1.996zm0-3.993v-1.996h-1v1.996zm0-3.993v-1.997h-1v1.997zm0-3.993v-1.997h-1v1.997zm0-3.993v-1.997h-1v1.997zm0-3.993v-1.997h-1v1.997zm0-3.993v-1.997h-1v1.997zm0-3.993v-1.997h-1v1.997zm0-3.994v-1.996h-1v1.996zm0-3.993v-1.996h-1v1.996zm0-3.993v-1.996h-1v1.996zm0-3.993v-1.996h-1v1.996zm0-3.993v-1.997h-1v1.997zm0-3.993v-1.997h-1v1.997zm0-3.993v-1.997h-1v1.997zm0-3.993v-1.997h-1v1.997zm0-3.993v-1.997h-1v1.997zm0-3.994v-1.996h-1v1.996zm0-3.993v-1.996h-1v1.996zm0-3.993v-1.996h-1v1.996zm0-3.993v-1.996h-1v1.996zm0-3.993v-1.996h-1v1.996zm0-3.993v-1.997h-1v1.997zm0-3.993v-1.997h-1v1.997zm0-3.993v-1.997h-1v1.997zm0-3.993v-1.997h-1v1.997zm0-3.993v-1.997h-1v1.997zm0-3.994v-1.996h-1v1.996zm0-3.993v-1.996h-1v1.996zm0-3.993v-1.996h-1v1.996zm0-3.993v-1.996h-1v1.996zm0-3.993v-1.997h-1v1.997zm0-3.993v-1.997h-1v1.997zm0-3.993v-1.997h-1v1.997zm0-3.993v-1.997h-1v1.997zm0-3.993v-1.997h-1v1.997zm0-3.993v-1.997h-1v1.997zm0-3.994v-1.996h-1v1.996zm0-3.993v-1.996h-1v1.996zm0-3.993v-1.996h-1v1.996zm0-3.993v-1.996h-1v1.996zm0-3.993v-1.997h-1v1.997zm0-3.993v-1.997h-1v1.997zm0-3.993v-1.997h-1v1.997zm0-3.993v-1.997h-1v1.997zm0-3.993v-1.997h-1v1.997zm0-3.993v-1.997h-1v1.997zm0-3.994v-1.996h-1v1.996zm0-3.993v-1.996h-1v1.996zm0-3.993v-1.996h-1v1.996zm0-3.993v-1.996h-1v1.996zm0-3.993v-.999h-1v.999zm0-.999l.01-.986-1-.018-.01 1.004zm.08-2.946l.15-1.96-1-.092-.15 1.997zm.37-3.912l.29-1.942-.99-.166-.3 1.978zm.65-3.87l.43-1.915-.97-.24-.44 1.952zm.94-3.813l.58-1.876-.95-.313-.59 1.913zm1.23-3.729l.72-1.827-.93-.383-.73 1.862zm1.5-3.627l.85-1.769-.89-.451-.87 1.802zm1.77-3.503l.99-1.7-.86-.517-1 1.732zm2.03-3.362l1.11-1.621-.81-.58-1.13 1.653zm2.28-3.2l1.22-1.535-.77-.638-1.24 1.563zm2.51-3.023l1.33-1.439-.72-.694-1.36 1.467zm2.72-2.827l1.44-1.336-.67-.746-1.46 1.361zm2.93-2.618l1.53-1.225-.61-.793-1.56 1.248zm3.11-2.392l1.62-1.108-.55-.836-1.65 1.128zm3.28-2.154l1.7-.984-.48-.874-1.73 1.001zm3.44-1.902l1.77-.854-.42-.908-1.8.869zm3.57-1.64l1.83-.718-.35-.937-1.87.731zm3.68-1.366l1.87-.578-.27-.961-1.91.589zm3.77-1.085l1.92-.435-.21-.979-1.95.443zm3.85-.798l1.94-.29-.13-.992-1.98.296zm3.89-.508l1.96-.144-.06-.999-1.99.148zm3.92-.216l.98-.009v-1l-1 .009zm.98-.009h1.01v-1h-1.01zm3.03 0h2.02v-1h-2.02zm4.03 0h2.02v-1h-2.02zm4.04 0h2.01v-1h-2.01zm4.03.001h2.02v-1h-2.02zm4.04 0h2.01v-1h-2.01zm4.03 0h2.02v-1h-2.02zm4.03 0h2.02v-1h-2.02zm4.04.001h2.01v-1h-2.01zm4.03 0h2.02v-1h-2.02zm4.04 0h2.01v-1h-2.01zm4.03 0h2.02v-1h-2.02zm4.03.001h2.02v-1h-2.02zm4.04 0h2.01v-1h-2.01zm4.03 0h2.02v-1h-2.02zm4.04 0h2.01v-1h-2.01zm4.03.001h2.02v-1h-2.02zm4.03 0h2.02v-1h-2.02zm4.04 0h2.01v-1h-2.01zm4.03 0h2.02v-1h-2.02zm4.03.001h2.02v-1h-2.02zm4.04 0h2.02v-1h-2.02zm4.03 0h2.02v-1h-2.02zm4.04 0h2.01v-1h-2.01z"/></g><g stroke="#000"><g stroke-dasharray="2 2"><path d="M1662.3 157.509h438.36m-582.04-89.888V0m419.91 1364.57V733.208M0 921.918h1087.76"/></g><rect width="298.786" height="299.542" x="1753.2" y="431.3" rx="14.5"/><rect width="277.053" height="277.754" x="1085.75" y="731.842" rx="14.5"/></g><g stroke="#707070" stroke-dasharray="2 2"><rect width="94.174" height="94.414" x="805.133" y="987.259" rx="14.5"/><rect width="88.051" height="88.275" x="1263.57" y="405.75" rx="14.5"/><rect width="85.44" height="85.658" x="731.344" y="134.311" rx="14.5"/><rect width="195.581" height="196.076" x="170.375" y="159.547" rx="14.5"/><rect width="167.79" height="168.215" x="1660.55" y="819.248" rx="14.5"/><rect width="167.79" height="168.215" x="85.984" y="664.082" rx="14.5"/></g><rect width="286.777" height="287.502" x="1375.26" y="68.121" stroke="#000" rx="14.5"/></svg>